# xmcd
#
# Track frame offsets:
#	150
#	15385
#	33282
#	48170
#	62100
#	72832
#	97300
#	109890
#	123027
#	134600
#	145630
#	157977
#	169437
#	184735
#	197662
#	211852
#	224932
#	236770
#	250762
#	263577
#	280420
#	297750
#	311185
#	324717
#
# Disc length: 4516 seconds
#
# Revision: 0
# Processed by: cddbd v1.5.2PL0 Copyright (c) Steve Scherf et al.
# Submitted via: EasyCDDAExtractor 10.2.0.1
#
DISCID=7211a218
DTITLE=Cristy Lane - Cristy Lane-Greatest Hits Vol. 1 and 2
DYEAR=1984
DGENRE=Gospel
TTITLE0=One Day At A Time
TTITLE1=I Have A Dream
TTITLE2=He Sees My Heart
TTITLE3=Footprints In The Sands
TTITLE4=He's Got The Whole World In His Hands
TTITLE5=Danny Boy
TTITLE6=It's Down To You And Me
TTITLE7=Always On My Mind
TTITLE8=By The Way
TTITLE9=Release Me
TTITLE10=I Love You More Every Day
TTITLE11=Let Me Down Easy
TTITLE12=Simple Little Words
TTITLE13=Sweet Sexy Eyes
TTITLE14=Maybe I'm Thinking
TTITLE15=I Just Can't Stay Married To You
TTITLE16=Penny Arcade
TTITLE17=Shake Me I Rattle
TTITLE18=Love Lies
TTITLE19=Rain Songs
TTITLE20=He's Back In Town
TTITLE21=I've Really Got The Blues
TTITLE22=Fragile, Handle With Care
TTITLE23=Here's To Us
EXTD=
EXTT0=
EXTT1=
EXTT2=
EXTT3=
EXTT4=
EXTT5=
EXTT6=
EXTT7=
EXTT8=
EXTT9=
EXTT10=
EXTT11=
EXTT12=
EXTT13=
EXTT14=
EXTT15=
EXTT16=
EXTT17=
EXTT18=
EXTT19=
EXTT20=
EXTT21=
EXTT22=
EXTT23=
PLAYORDER=
